<?xml version="1.0" encoding="utf-8"?>
<!-- Uploaded to: SVG Repo, www.svgrepo.com, Generator: SVG Repo Mixer Tools -->
<svg width="800px" height="800px" viewBox="0 0 1024 1024" class="icon"  version="1.1" xmlns="http://www.w3.org/2000/svg"><path d="M840 354.4V239.1c0-10.5-8.6-19.1-19.1-19.1H204.4c-10.5 0-19.1 8.6-19.1 19.1v115.3H840z" fill="#0071CE" /><path d="M230.2 238.5h82.7v39.8h-82.7zM445.3 245.8H528v39.8h-82.7zM701.1 238.5h82.7v39.8h-82.7zM185.3 306.6H840v47.8H185.3z" fill="" /><path d="M127.5 391.9h770.3v519H127.5z" fill="#0071CE" /><path d="M350.6 641.9h324.1v269H350.6z" fill="#FFFFFF" /><path d="M127.5 503V370.4c0-22.2 18.2-40.4 40.4-40.4h689.6c22.2 0 40.4 18.2 40.4 40.4V503H127.5z" fill="#00B3E3" /><path d="M154.1 637.3h82.7v39.8h-82.7zM240.5 776.6h82.7v39.8h-82.7zM212.8 539.6h82.7v39.8h-82.7zM154.1 381.6h82.7v39.8h-82.7zM776.5 421.4h82.7v39.8h-82.7zM731.6 567.3h82.7v39.8h-82.7zM457.3 553.8H540v39.8h-82.7zM772.9 745.7h82.7v39.8h-82.7z" fill="" /><path d="M960.1 924.7c0 4.2-3.5 7.7-7.7 7.7H73c-4.2 0-7.7-3.5-7.7-7.7v-27.6c0-4.2 3.5-7.7 7.7-7.7h879.5c4.2 0 7.7 3.5 7.7 7.7v27.6z" fill="#333E48" /><path d="M327.8 889.4h369.8v43H327.8z" fill="#A4A9AD" /><path d="M497.4 641.9h30.5v247.5h-30.5z" fill="#D1D3D3" /><path d="M931.7 889.4v-87.9c0-14.7-11.3-26.8-25.1-26.8H778.1c-13.8 0-25.1 12.1-25.1 26.8v87.9h178.7zM270.9 889.4v-87.9c0-14.7-11.3-26.8-25.1-26.8H117.2c-13.8 0-25.1 12.1-25.1 26.8v87.9h178.8z" fill="#00AD68" /><path d="M873.5 889.4v-59.6c0-11-9-19.9-19.9-19.9H741.7c-11 0-19.9 9-19.9 19.9v59.6h151.7z" fill="#7CDFA8" /><path d="M715.5 446.3c-15.1 69.3-46.8 102.8-46.8 102.8-2.4 2.5-7.1 3.9-10.4 3.2L597.1 539c-3.4-0.7-7-4-8.1-7.3 0 0-14.9-43.7 0.2-113 9.6-44.3 59.1-97.5 64.4-121.6 5.2-24-5.5-40.7 2.9-79.4 4.9-22.5 27.1-36.8 49.7-31.9 22.5 4.9 36.8 27.1 31.9 49.7-8.4 38.7-25.2 49.4-30.4 73.5-5.5 24 17.4 93 7.8 137.3z" fill="#D1D3D3" /><path d="M648.4 309.7c-3.9 7.5-9.5 16.3-15.8 25.9l77.8 16.9c-1.7-11.3-3.2-21.7-3.6-30.1l-58.4-12.7z m6.2-20l54.9 12c3.2-9.3 8.2-17 13.3-26.4l-69.4-15.1c0.8 10.6 2.2 19.6 1.2 29.5z" fill="#FF5959" /><path d="M608.4 356.3c-18.7 68.4-52.2 100.2-52.2 100.2-2.5 2.4-7.3 3.6-10.6 2.7l-60.4-16.5c-3.3-0.9-6.8-4.4-7.7-7.7 0 0-12.6-44.4 6.1-112.8 12-43.7 64.2-94.3 70.7-118 6.5-23.7-3.4-40.9 7.1-79.2 6.1-22.2 29-35.3 51.3-29.2 22.2 6.1 35.3 29 29.2 51.3-10.5 38.2-27.7 48-34.2 71.7-6.5 23.6 12.7 93.8 0.7 137.5z" fill="#D1D3D3" /><path d="M556.3 167.1c0.2 10.7 1.1 19.8-0.4 29.6l54.2 14.8c3.7-9.2 9.1-16.6 14.7-25.7l-68.5-18.7z m-7.6 49.3c-4.3 7.3-10.4 15.8-17.2 25l76.8 21c-1.1-11.4-2.1-21.8-2-30.3l-57.6-15.7z" fill="#FF5959" /><path d="M309.9 446.3c15.1 69.3 46.8 102.8 46.8 102.8 2.4 2.5 7.1 3.9 10.4 3.2l61.2-13.3c3.4-0.7 7-4 8.1-7.3 0 0 14.9-43.7-0.2-113-9.6-44.3-59.1-97.5-64.4-121.6-5.2-24 5.6-40.7-2.9-79.4-4.9-22.5-27.1-36.8-49.7-31.9-22.5 4.9-36.8 27.1-31.9 49.7 8.4 38.7 25.2 49.4 30.4 73.5 5.4 24-17.4 93-7.8 137.3z" fill="#D1D3D3" /><path d="M376.9 309.7l-58.4 12.7c-0.4 8.4-1.9 18.8-3.6 30.1l77.8-16.9c-6.3-9.6-11.9-18.4-15.8-25.9z m-6.1-20c-1-9.8 0.4-18.9 1.1-29.6l-69.4 15.1c5.1 9.4 10.1 17.1 13.3 26.4l55-11.9z" fill="#FF5959" /><path d="M512.7 419.1m-155.8 0a155.8 155.8 0 1 0 311.6 0 155.8 155.8 0 1 0-311.6 0Z" fill="#333E48" /><path d="M512.7 355.3m-15.5 0a15.5 15.5 0 1 0 31 0 15.5 15.5 0 1 0-31 0Z" fill="" /><path d="M543.7 403.6m-15.5 0a15.5 15.5 0 1 0 31 0 15.5 15.5 0 1 0-31 0Z" fill="" /><path d="M574.7 355.3m-15.5 0a15.5 15.5 0 1 0 31 0 15.5 15.5 0 1 0-31 0Z" fill="" /></svg>