<?xml version="1.0" encoding="utf-8"?>
<!-- Uploaded to: SVG Repo, www.svgrepo.com, Generator: SVG Repo Mixer Tools -->
<svg width="800px" height="800px" viewBox="0 0 1024 1024" class="icon"  version="1.1" xmlns="http://www.w3.org/2000/svg"><path d="M921.043739 455.574662c31.361618 61.892042 52.333302 153.707096 52.333302 256.263745 0 76.310075-8.279979 146.705879-26.885954 203.227123H739.619494c-18.542037-56.553214-26.822016-126.917049-26.822017-203.227123 0-103.451781 18.254316-194.371702 50.09547-256.263745h158.150792z" fill="#FFB578" /><path d="M762.892947 365.901533h158.150792v89.673129h-158.150792z" fill="#FF4893" /><path d="M599.051669 414.558397c36.061066 71.131092 60.197683 176.756767 60.197683 294.722487 0 87.723018-9.590709 168.668602-30.882083 233.66164h-237.913521c-21.323343-64.993038-30.914052-145.970591-30.914052-233.66164 0-118.956761 21.067591-223.527458 57.67213-294.722487h181.839843z" fill="#5FCEFF" /><path d="M417.211826 311.426306h181.839843v103.132091h-181.839843z" fill="#FF4893" /><path d="M258.006057 455.574662c31.361618 61.892042 52.301333 153.707096 52.301333 256.263745 0 76.310075-8.311948 146.705879-26.822016 203.227123H76.61378c-18.542037-56.553214-26.885954-126.917049-26.885954-203.227123 0-103.451781 18.254316-194.371702 50.09547-256.263745h158.182761z" fill="#FFB578" /><path d="M99.823296 365.901533h158.182761v89.673129h-158.182761z" fill="#FF4893" /><path d="M599.051669 333.804627a22.378321 22.378321 0 0 1-22.378321-22.378321v-132.000125c0-18.30227-7.135487-35.53038-20.092536-48.513003-12.931473-12.928276-30.156386-20.060566-48.484231-20.060566-37.774606 0-68.509631 30.763798-68.509631 68.573569v132.000125a22.378321 22.378321 0 1 1-44.756642 0v-132.000125c0-62.489863 50.811576-113.330211 113.266273-113.330211 30.281065 0 58.743093 11.786981 80.146359 33.183853 21.406462 21.448022 33.18705 49.906853 33.18705 80.146358v132.000125a22.378321 22.378321 0 0 1-22.378321 22.378321z" fill="#4F46A3" /><path d="M599.051669 436.936718h-181.839843a22.378321 22.378321 0 0 1-22.378321-22.378321v-103.132091a22.378321 22.378321 0 0 1 22.378321-22.378321h181.839843a22.378321 22.378321 0 0 1 22.378321 22.378321v103.132091a22.378321 22.378321 0 0 1-22.378321 22.378321z m-159.461522-44.756642h137.083201v-58.375449h-137.083201v58.375449z" fill="#4F46A3" /><path d="M628.370466 965.327239a22.378321 22.378321 0 0 1-21.272192-29.350766c19.753664-60.303181 29.769561-136.574893 29.76956-226.695589 0-108.43895-21.058-212.172058-57.774431-284.604289a22.378321 22.378321 0 0 1 39.916531-20.236396c39.791852 78.493559 62.614542 189.60512 62.614542 304.840685 0 94.861703-10.763972 175.820074-31.991408 240.627692a22.387912 22.387912 0 0 1-21.262602 15.418663zM390.450551 965.327239a22.391109 22.391109 0 0 1-21.259405-15.405875c-21.253011-64.782042-32.029771-145.743611-32.029771-240.637283 0-121.213774 21.361706-229.515257 60.146533-304.955774a22.378321 22.378321 0 0 1 39.801442 20.463376c-35.591121 69.228934-55.19453 170.26066-55.19453 284.489201 0 90.149468 10.025488 166.417983 29.798333 226.685998a22.378321 22.378321 0 0 1-21.262602 29.360357z" fill="#4F46A3" /><path d="M628.239393 965.320845h-237.785645a22.378321 22.378321 0 1 1 0-44.756642h237.785645a22.378321 22.378321 0 1 1 0 44.756642zM258.006057 388.279854a22.378321 22.378321 0 0 1-22.378321-22.378321v-114.800787c0-15.130942-5.898286-29.373145-16.607911-40.108345a56.355006 56.355006 0 0 0-40.101952-16.604714c-31.272105 0-56.713059 25.440954-56.713059 56.713059v114.800787a22.378321 22.378321 0 1 1-44.756642 0v-114.800787c0-55.948999 45.520702-101.469701 101.469701-101.469701 27.106541 0 52.595448 10.559371 71.770473 29.731198 19.15904 19.200599 29.699229 44.673523 29.699229 71.738503v114.800787a22.381518 22.381518 0 0 1-22.381518 22.378321z" fill="#4F46A3" /><path d="M258.006057 477.952983h-158.182761a22.378321 22.378321 0 0 1-22.378321-22.378321v-89.673129a22.378321 22.378321 0 0 1 22.378321-22.378321h158.182761a22.378321 22.378321 0 0 1 22.378321 22.378321v89.673129a22.378321 22.378321 0 0 1-22.378321 22.378321z m-135.80444-44.756642h113.426119v-44.916487h-113.426119v44.916487z" fill="#4F46A3" /><path d="M283.48857 937.450245a22.378321 22.378321 0 0 1-21.272192-29.350766c17.058674-52.093534 25.709494-118.125566 25.709494-196.264269 0-93.864269-18.183984-183.582155-49.884475-246.148744a22.378321 22.378321 0 0 1 39.922925-20.230002c34.772714 68.62472 54.718192 165.717861 54.718192 266.378746 0 82.876513-9.398895 153.595205-27.934539 210.193175a22.378321 22.378321 0 0 1-21.259405 15.42186zM76.610583 937.450245a22.384715 22.384715 0 0 1-21.259404-15.412269c-18.5804-56.668303-28.001673-127.386994-28.001674-210.199569 0-105.958153 18.669914-200.602466 52.57307-266.500228a22.375124 22.375124 0 0 1 30.137205-9.661041 22.378321 22.378321 0 0 1 9.66104 30.137204c-30.706253 59.682982-47.61787 147.057538-47.61787 246.027261 0 78.068371 8.670001 144.097206 25.773432 196.257876a22.375124 22.375124 0 0 1-21.265799 29.350766z" fill="#4F46A3" /><path d="M283.357497 937.443851h-206.743717a22.378321 22.378321 0 1 1 0-44.756642h206.743717a22.378321 22.378321 0 1 1 0 44.756642zM921.043739 388.279854a22.378321 22.378321 0 0 1-22.378321-22.378321v-114.800787c0-15.130942-5.90468-29.369948-16.623896-40.09236a56.191964 56.191964 0 0 0-40.057194-16.623896c-31.268908 0-56.709862 25.440954-56.709863 56.713059v114.800787a22.378321 22.378321 0 1 1-44.756642 0v-114.800787c0-55.948999 45.517505-101.469701 101.466505-101.469701 27.109737 0 52.582661 10.565764 71.725715 29.750379 19.155843 19.155843 29.715213 44.631963 29.715214 71.719322v114.800787a22.384715 22.384715 0 0 1-22.381518 22.381518z" fill="#4F46A3" /><path d="M921.043739 477.952983h-158.150792a22.378321 22.378321 0 0 1-22.378321-22.378321v-89.673129a22.378321 22.378321 0 0 1 22.378321-22.378321h158.150792a22.378321 22.378321 0 0 1 22.378321 22.378321v89.673129a22.378321 22.378321 0 0 1-22.378321 22.378321z m-135.772471-44.756642h113.39415v-44.916487h-113.39415v44.916487z" fill="#4F46A3" /><path d="M946.494284 937.450245a22.378321 22.378321 0 0 1-21.259405-29.382735c17.097037-51.930492 25.767038-117.952933 25.767038-196.2323 0-93.822709-18.193575-183.540595-49.916444-246.148744a22.378321 22.378321 0 0 1 39.922925-20.230002c34.795092 68.669476 54.750161 165.759421 54.750161 266.378746 0 83.042752-9.421273 153.774231-28.008067 210.225144a22.394306 22.394306 0 0 1-21.256208 15.389891zM739.616297 937.450245a22.384715 22.384715 0 0 1-21.259405-15.412269c-18.53884-56.54682-27.937735-127.265512-27.937736-210.199569 0-105.958153 18.67311-200.605663 52.576267-266.500228 5.652125-10.990953 19.143055-15.316362 30.137205-9.661041s15.316362 19.149449 9.661041 30.137204c-30.706253 59.682982-47.621067 147.054341-47.621067 246.024065 0 78.189854 8.65082 144.218688 25.709493 196.257875a22.375124 22.375124 0 0 1-21.265798 29.353963z" fill="#4F46A3" /><path d="M946.459118 937.443851h-206.778883a22.378321 22.378321 0 1 1 0-44.756642h206.778883a22.378321 22.378321 0 1 1 0 44.756642z" fill="#4F46A3" /></svg>